<?xml version="1.0" encoding="UTF-8" standalone="no"?>
<!-- Created with Inkscape (http://www.inkscape.org/) -->

<svg
   version="1.1"
   id="svg2"
   width="3333.3333"
   height="3333.3333"
   viewBox="0 0 3333.3333 3333.3333"
   sodipodi:docname="vecteezy_single-line-drawing-heart-shape-grass-water-drop_7455747.eps"
   xmlns:inkscape="http://www.inkscape.org/namespaces/inkscape"
   xmlns:sodipodi="http://sodipodi.sourceforge.net/DTD/sodipodi-0.dtd"
   xmlns="http://www.w3.org/2000/svg"
   xmlns:svg="http://www.w3.org/2000/svg">
  <defs
     id="defs6" />
  <sodipodi:namedview
     id="namedview4"
     pagecolor="#ffffff"
     bordercolor="#000000"
     borderopacity="0.25"
     inkscape:showpageshadow="2"
     inkscape:pageopacity="0.0"
     inkscape:pagecheckerboard="0"
     inkscape:deskcolor="#d1d1d1" />
  <g
     id="g8"
     inkscape:groupmode="layer"
     inkscape:label="ink_ext_XXXXXX"
     transform="matrix(1.3333333,0,0,-1.3333333,0,3333.3333)">
    <g
       id="g10"
       transform="scale(0.1)">
      <path
         d="M 25000,0 H 0 V 25000 H 25000 V 0"
         style="fill:#ffffff;fill-opacity:1;fill-rule:nonzero;stroke:none"
         id="path12" />
      <path
         d="m 3219.45,3120.9 c 293.16,260.1 685.44,373 1024.28,569.9 338.84,197 650.16,550.9 581.76,936.9 -29.3,165.3 -151.42,329.2 -318.81,342.2 -232.19,18 -390.52,-272.5 -329,-497.1 61.53,-224.6 260.4,-381.5 455.58,-508.5 570.71,-371.4 1244.46,-635.9 1921.71,-565.1 677.25,70.8 1339.95,545.2 1471.88,1213.3 37.67,190.7 27.89,402.5 -85.29,560.6 -113.18,158.1 -351.52,233.9 -511.53,123.4 -197.01,-136 -167.31,-432.2 -103.78,-663 129.72,-471.3 330.92,-957.2 733.89,-1233.8 341.71,-234.5 775.9,-281.8 1190.21,-292.6 632.27,-16.5 1399.85,128.8 1618.75,722.2 48.8,132.5 48.9,309.8 -71.3,383.9 -105.2,64.9 -254.8,5.9 -316.6,-101.2 -61.8,-107 -51.1,-242.9 -7.2,-358.5 196.1,-516.6 880.8,-613.2 1431.7,-570.4 505.2,39.2 1047.4,146.1 1388.8,520.5 430.4,472.1 395.4,1199.4 261,1823.9 -40.9,190.1 -171.9,430 -357,370.6 -51.1,-16.4 -92.1,-54.8 -127.1,-95.4 -337.2,-391.2 -222.1,-1027.6 121.9,-1412.7 344,-385.2 852.4,-574.5 1346.3,-725.2 412.2,-125.9 830.1,-235 1254.9,-308 282.9,-48.7 579.3,-80.3 852.3,8.1 273,88.4 516.4,326.4 526.1,613.2 9.8,286.9 -294,564.3 -562.7,463.4 59.8,-345.6 340.3,-622.7 662.5,-761.4 322.1,-138.7 682.1,-159 1032.8,-152.7 466.7,8.3 965.3,73.6 1317.6,379.9 352.3,306.3 459.8,926.1 104.3,1228.8 -87.4,74.4 -203.6,125.2 -316.4,103.9 -296.6,-56.2 -299,-487.7 -177.2,-763.9 442.6,-1003.4 1573.5,-1655.9 2663.7,-1537"
         style="fill:#75d0b8;fill-opacity:1;fill-rule:nonzero;stroke:none"
         id="path14" />
      <path
         d="m 3249.29,3048.5 c 429.28,372 1045.97,448.7 1417.04,899.9 155.57,189.1 251.88,428.1 216.43,675.6 -30.43,212.4 -199.47,468.8 -445.45,427 -209.83,-35.6 -324.53,-268.8 -328.31,-463.5 -4.85,-250.6 170.06,-456.3 358.79,-599.8 458.03,-348.3 1033.99,-604.8 1607.45,-669.8 516.75,-58.5 1038.97,66.6 1449.97,391.6 369.66,292.3 668.72,805.3 555.88,1290.8 -52.95,227.7 -229.07,433.5 -478.66,432.9 -240.04,-0.7 -364.57,-220.1 -377.68,-435.2 -15.04,-246.8 71.99,-497.9 154.75,-726.9 89.71,-248.1 208.82,-492.5 381.01,-694.3 379.75,-445.2 946.75,-542.5 1504.11,-554.6 442.89,-9.6 936.38,46.9 1305.68,312.6 170.6,122.8 311.1,303.3 364.7,508.8 47.8,183.2 5,485.8 -242.4,480.9 -269.9,-5.4 -345.2,-321.9 -290.7,-535.5 53.2,-208.4 194.1,-381.6 375.7,-492.6 398,-243.3 914.4,-230.9 1360.7,-174.9 512.5,64.4 1043.9,238.1 1330.1,699.9 275.5,444.5 264.8,1007.6 182.8,1505.8 -34.6,210.2 -73.6,490.8 -266.5,621.2 -210.3,142 -394.1,-104.4 -475.1,-275.6 -207.1,-437.8 -64,-991.5 245.9,-1343.6 369.6,-420.1 919.5,-611 1440,-767.2 321.1,-96.4 645.6,-182 974.4,-247.8 307.7,-61.5 633.3,-126.5 946.3,-67.6 243.4,45.8 471,174.3 605.8,387.1 126.9,200.5 143.7,452.5 18.2,657.3 -114,186.1 -331.9,303.3 -546.7,231.8 -37.8,-12.6 -42.1,-74.5 -36.3,-105.1 63,-330.3 289.8,-595.1 578.1,-757.8 352.4,-198.9 776.6,-224.3 1172.3,-217.1 656.9,11.9 1463.5,176.4 1657.6,907.7 72.3,272.6 43.2,588.5 -154.3,803.5 -105.3,114.6 -262.5,203.4 -422.2,166.1 -115.7,-27.1 -196.8,-113 -240.6,-220.9 -106.4,-262.1 -20.9,-561.8 102.8,-800.5 150.1,-289.5 354.1,-548.3 598.4,-764.2 555.5,-491 1309.4,-756.5 2050.3,-680 75.6,7.8 69.5,176.8 -4.1,169.2 -572.1,-59.1 -1152.5,87.3 -1638.6,392.4 -237.5,149 -454.3,335.3 -632.7,551.8 -166.1,201.4 -339.7,450 -393.7,709.9 -43.7,210.7 9.7,551.5 308.2,472.8 276.8,-72.9 382.2,-386.9 343,-642.2 -100,-650.3 -803.4,-853 -1368.2,-888.3 -392,-24.4 -810.5,-22.3 -1181,122.7 -316.3,123.9 -603.4,377.2 -669.2,722.5 -12.1,-35 -24.2,-70 -36.3,-105 202.3,67.4 420.8,-85.4 478,-281.2 62.9,-215.6 -109,-430 -278.9,-540.2 -213.8,-138.5 -476.9,-158.3 -724.6,-138.6 -264.9,21 -528.5,78.5 -786.8,138.9 -485,113.3 -985.4,244.2 -1437.9,456.4 -394.1,184.7 -761.1,468.4 -898.8,897.2 -62.1,193.5 -76.1,409.3 -9.1,603.4 53.4,154.4 234,455.9 413.2,262.4 134.9,-145.7 152.2,-392 178.2,-578.8 30.1,-216.4 41.9,-438.8 16.6,-656.3 -52.8,-454.2 -288.5,-835.1 -707.2,-1035.4 -375,-179.4 -824.6,-235.4 -1237.2,-229.1 -352.9,5.4 -791.5,72.7 -1020.4,374 -112.1,147.5 -212.2,498.6 72.7,522 271.5,22.2 123,-343 46.9,-454.8 -212,-311.2 -614.4,-434.9 -969.29,-482.7 -421.51,-56.8 -894,-46.4 -1301.54,80.3 -454.45,141.3 -748.87,483 -929.32,911.7 -82.78,196.7 -160.6,410.8 -189.66,623.2 -27.07,197.8 30.67,440 277.05,431.2 253.22,-9 377.92,-249.8 371.93,-477.5 -5.33,-202.6 -82.62,-402.3 -191.63,-571.1 -224.68,-347.7 -602.33,-585.2 -999.05,-687.3 -463.98,-119.5 -960.86,-39.3 -1401.92,129.1 -238.98,91.2 -467.88,209.5 -684.1,345.9 -180.86,114.1 -394.08,251.1 -472.23,461 -62.31,167.4 34.56,409.3 232.63,421.4 246.16,15.2 335,-286.4 291.92,-479 -105.52,-471.7 -623.79,-685 -1012.72,-868.9 -200.32,-94.7 -395.84,-198.4 -564.16,-344.2 -52.34,-45.4 -9.42,-204.7 59.68,-144.8 v 0"
         style="fill:#73d1e8;fill-opacity:1;fill-rule:nonzero;stroke:none"
         id="path16" />
      <path
         d="m 3475.81,11781.8 c 4080.87,-23.4 8161.79,-46.8 12242.59,-70.2 1612.3,-9.3 3249.6,-22 4796.4,-477 -280.7,221.8 -505.4,513.9 -648,842 -171.8,-60.8 -172.2,-389.1 -354.3,-379.8 -73.5,3.8 -126.7,69.1 -170,128.7 -123.1,169.7 -246.3,339.4 -369.4,509.1 -68.3,-127.8 -110.1,-269.7 -122,-414.1 -320.3,337.9 -495.2,809.2 -472.9,1274.2 -220.9,-390.1 -441.8,-780.2 -662.7,-1170.3 -225,472.1 -506.6,917.2 -836.8,1322.7 48.8,-466.8 97.5,-933.6 146.2,-1400.4 -102.9,245.4 -205.9,490.9 -308.9,736.4 71.1,-249 -248.2,-416.8 -500.7,-474.1 -236.5,-53.7 -473.9,-103.7 -712,-149.9 -293.6,-57 -605,-107 -885.4,-3 -280.4,104 -505.1,419 -403.4,700.3 -48.1,-175.7 -96.2,-351.3 -144.3,-526.9 -7.5,-27.5 -16.1,-56.6 -37.9,-74.9 -60.6,-50.7 -145.1,23.1 -188.5,89.2 -123.5,187.8 -246.9,375.6 -370.3,563.5 -15.5,-280.7 -82,-558.5 -195.3,-815.8 -175.4,176.7 -350.8,353.4 -526.2,530.1 122.4,-93.3 79.4,-303.4 -42.9,-396.9 -122.3,-93.5 -286.9,-103.4 -440.7,-109.6 -494.8,-20 -989.7,-39.9 -1484.5,-59.9 -36.9,-1.5 -78.4,-1.3 -104.6,24.7 -21.5,21.3 -26.2,53.7 -29.8,83.8 -23.2,194.9 -46.3,389.8 -69.5,584.7 -94.4,-355.8 -322.7,-674.3 -629.26,-878 -128.21,180.8 -256.41,361.6 -384.62,542.4 -117.72,-142 -235.44,-284 -353.16,-426 -151.18,250 -302.36,500.1 -453.54,750.1 51.45,-211.1 -47.48,-436.1 -199.57,-591.2 -152.1,-155.1 -119.49,-95.2 -314.45,-191.1 -43.61,-21.4 -214.08,36.5 -258.34,56.6 -31.97,14.5 -132.75,149.7 -149.81,180.3 -65.42,117.7 -161.33,-105.5 -226.75,12.1 -435.87,-361.8 -1184.02,-234.7 -1475.9,250.8 -135.2,-137.4 -270.41,-274.8 -405.62,-412.2 -133.6,307.8 -267.19,615.6 -400.79,923.5 -22.5,-222.4 -45.01,-444.8 -67.51,-667.1 -9.01,-89.1 -37.56,-200.2 -125.97,-214.4 -179.71,-28.8 -176.36,360.1 -358.33,357.1 -331.78,-353.7 -809.28,-566.2 -1294.08,-576.1"
         style="fill:#63c331;fill-opacity:1;fill-rule:nonzero;stroke:none"
         id="path18" />
      <path
         d="m 5176.24,18732.9 c 537.92,170 1039.15,514.7 1439.89,990.4 123.81,146.9 243.01,317.8 273.47,526.8 30.45,209 -62.76,458.2 -231.41,496.9 -240.79,55.3 -395.45,-300.5 -468.11,-590 -190.03,38 -187.39,401.9 -340.59,546.2 -192.27,181.1 -475.31,-154.9 -426.07,-447.8 49.25,-292.8 278.64,-478.4 495.38,-610.5 1159.13,-706.4 2491.17,-813.8 3782.98,-836.8 1034.42,-18.3 2120.12,25.7 3017.82,662.2 300.5,213 576.3,495 756.8,860.8 91.3,185.1 158.2,400.9 134.3,615.8 -23.9,214.9 -161.1,420.4 -336,432.9 -285.2,20.3 -459.6,-426.5 -740.8,-488.5 -64.1,475.7 -330.2,902.5 -685.7,1099.8 -150.8,83.7 -321.5,127.8 -482.5,81.8 -311.1,-88.9 -509.5,-508.2 -498.4,-903.3 11.1,-395.1 190.5,-756.7 413,-1040.2 429.3,-547 1022.5,-861.3 1626.3,-1012.1 603.9,-150.8 1224.9,-150.4 1840.9,-149.4 985.5,1.5 1971,3 2956.5,4.6 481.2,0.7 1032.1,41.1 1330,509 137.7,216.3 196.2,491.7 251.3,758.5 49.3,238.2 78.1,546.4 -89.6,678.3 -126.9,99.9 -304.8,24.9 -402.9,-116.3 -98.2,-141.1 -136.3,-329.7 -171.4,-510.8 -40.9,219.6 -300.9,289.6 -440.7,145.4 -139.9,-144.2 -156.1,-416.9 -77.6,-620.2 78.5,-203.3 230.9,-347.6 388.9,-459.4 749.8,-530.4 1669.2,-473 2530.8,-400.2"
         style="fill:#ed1d24;fill-opacity:1;fill-rule:nonzero;stroke:none"
         id="path20" />
      <path
         d="m 549.625,11655.1 c 738.975,-29.3 1478.285,-68 2217.595,-87.3 271.81,-7.1 584.34,13.3 775.37,233.6 150.38,173.5 197.63,422.3 75.06,623.2 -21.35,-44.9 -42.71,-89.7 -64.06,-134.6 151.5,-168.2 303,-336.5 454.51,-504.7 36.81,-40.9 75.62,23.1 80.37,52.6 54.81,339.4 109.62,678.8 164.43,1018.2 -26.8,-17.5 -53.59,-35.1 -80.38,-52.6 298.26,-269.9 439.46,-673.6 366.24,-1069.9 -8.4,-45.5 26.75,-139 83.96,-93.6 228.75,181.5 393.8,425.4 480.26,704.1 -34.01,5.9 -68.03,11.9 -102.04,17.8 179.76,-864.8 1663.01,-958.4 1948.79,-121.7 -28.94,-6.5 -57.89,-12.9 -86.84,-19.3 121.26,-148 242.51,-295.9 363.77,-443.9 19.61,-23.9 42.23,-30.4 67.65,-11.5 408.51,303 628.7,816.5 579.63,1321.3 -31.13,-20.7 -62.25,-41.4 -93.38,-62.2 329.8,-389.6 511.61,-877.2 509.75,-1388.2 -0.15,-41.5 37.76,-112.1 85.4,-71.1 269.31,232.3 468.67,529.7 583.8,866 -34.01,5.9 -68.03,11.8 -102.04,17.7 62.61,-248.1 125.22,-496.2 187.82,-744.3 8.69,-34.5 43.75,-85.5 82.86,-48.6 356.17,335.4 499.04,856.8 371.13,1328.3 -26.43,-32.5 -52.85,-65.1 -79.27,-97.6 248.8,-152.2 291.04,-463.7 370.88,-720.5 93.82,-301.7 246.01,-533 566.71,-617.8 216.1,-57.2 440.6,-89.8 659.9,-132.4 119.5,-23.3 239,-46.5 358.5,-69.8 88.7,-17.2 181.4,-45.2 272.2,-47.9 160.2,-4.7 213.2,133.7 222.9,271 16.5,234.6 20.5,470.7 30.5,705.7 -31.1,-20.7 -62.2,-41.5 -93.4,-62.2 131,-155.4 227.9,-330.2 282.7,-526.4 10.6,-37.8 64.4,-96.7 93.8,-35 236.9,496.5 308.1,1049.8 200.6,1589.8 -33.3,-22.5 -66.6,-45.1 -100,-67.7 237.3,-473.2 373,-986.2 395.9,-1515.3 2.7,-61.8 75.4,-125.8 104.6,-40.2 153.7,450.2 307.4,900.3 461.1,1350.5 -28.9,-6.5 -57.9,-12.9 -86.8,-19.3 215.8,-323.6 267.3,-665.4 243.3,-1046.1 -8.3,-132 9.5,-261.4 101.3,-362.9 95.7,-105.7 238.9,-162.4 371.3,-206.7 588.6,-196.9 1247.6,-92.1 1752.6,264.5 -25.6,9.5 -51.2,19 -76.8,28.5 47.4,-121.2 94.8,-242.4 142.2,-363.6 21.9,-56 74.5,-46.6 96,2.3 168.2,383.3 279.5,787.2 332.1,1202.4 -36.5,6.6 -73.1,13.2 -109.7,19.9 10.8,-382.6 119.7,-748.8 319.7,-1075.1 25.5,-41.6 75.2,-21.2 86.8,19.3 226.7,785.3 89.9,1576.8 -349.6,2261.6 -21.4,-44.9 -42.7,-89.7 -64.1,-134.6 436.7,-349.3 679.8,-907.7 616.2,-1466.1 -5.7,-49.9 43.2,-156.9 94.9,-80 351.1,522.3 702.2,1044.7 1053.4,1567.1 -31.7,26.7 -63.3,53.4 -94.9,80.1 -155.1,-819.3 -237.2,-1650.5 -247.1,-2484.2 -0.6,-51 55.3,-120.5 96.3,-57.5 212.4,326.1 424.8,652.2 637.2,978.3 -32.1,19.2 -64.2,38.3 -96.3,57.5 4.4,-328.8 8.7,-657.5 13.1,-986.3 0.4,-30.6 26.4,-103.8 72.3,-79.8 290.9,151.7 581.7,303.4 872.6,455.1 -24.2,26.6 -48.3,53.2 -72.4,79.9 30.1,-327.3 340.3,-456.7 622.1,-526 417.7,-102.8 844.4,-171.8 1273,-208.3 876,-74.6 1758.1,-7.5 2614.2,190.9 67.4,15.6 48,181.3 -33.5,162.5 -775,-179.6 -1575,-246.7 -2369.1,-199.7 -398,23.5 -794.5,75.2 -1184.8,156.5 -228.4,47.5 -782,113.7 -810.8,426.8 -2.7,29.6 -24.8,104.6 -72.3,79.9 -290.8,-151.7 -581.7,-303.4 -872.5,-455.2 24.1,-26.6 48.2,-53.2 72.3,-79.8 -4.4,328.7 -8.7,657.5 -13.1,986.2 -0.6,50.2 -54.8,121.2 -96.3,57.5 -212.4,-326.1 -424.8,-652.2 -637.2,-978.3 32.1,-19.1 64.2,-38.3 96.3,-57.5 9.7,818.9 91.9,1634.5 244.2,2439.1 9.9,52.4 -45,154.3 -94.9,80 -351.1,-522.3 -702.2,-1044.7 -1053.3,-1567.1 31.6,-26.7 63.2,-53.4 94.8,-80.1 71.2,624.9 -178.7,1261.4 -671.9,1656 -73.8,59 -90.9,-92.7 -64.1,-134.5 399.3,-622.1 533.8,-1341.5 327.3,-2056.9 28.9,6.4 57.9,12.8 86.8,19.2 -177.7,290 -274.6,616.2 -284.1,956.2 -2.3,81.2 -97.2,118.3 -109.7,19.8 -51,-402.1 -159.1,-790.6 -322,-1161.7 32,0.8 64,1.6 96,2.3 -47.4,121.2 -94.8,242.4 -142.2,363.6 -13.6,34.8 -45,51 -76.8,28.5 -487.3,-344.1 -1139,-434.4 -1701.3,-233.5 -143.8,51.4 -337,123.8 -355.3,298.7 -15.6,149.5 22.6,304.2 9,456.2 -25.8,289.6 -124.4,565 -285.6,806.7 -27.6,41.4 -73,21.2 -86.8,-19.3 -153.7,-450.1 -307.4,-900.3 -461.1,-1350.4 34.8,-13.4 69.7,-26.8 104.6,-40.2 -24.2,557.2 -163.2,1101.7 -413.2,1600.4 -45.7,91.1 -113.7,1.5 -100,-67.7 95.8,-481.1 35.5,-981.3 -176,-1424.5 31.3,-11.7 62.5,-23.4 93.8,-35.1 -62,222.1 -164.3,423.9 -313.1,600.4 -49.7,58.9 -91.2,-10.4 -93.4,-62.1 -9,-210 -16.2,-420.1 -26.9,-630 -1.7,-33.4 2,-92.4 -14,-123.7 -34.9,-68.2 -108.7,-53.4 -168.8,-43.3 -90,15 -179.4,34.9 -268.9,52.3 -209.1,40.7 -418.2,81.3 -627.4,122 -173.6,33.8 -367.4,54 -519.1,151.9 -219.95,141.8 -271.06,424.5 -339.96,657.8 -64.87,219.7 -147.74,449.4 -352.94,574.9 -59.73,36.6 -92.48,-48.8 -79.27,-97.5 111.08,-409.5 -16.42,-845.6 -324.75,-1136 27.62,-16.1 55.24,-32.3 82.86,-48.5 -62.61,248.1 -125.22,496.2 -187.83,744.3 -14.25,56.5 -78.1,87.7 -102.04,17.7 -107.63,-314.3 -293.91,-587.3 -545.44,-804.2 28.47,-23.7 56.93,-47.3 85.4,-71 2,549.5 -189.85,1087.3 -545.23,1507.1 -45.99,54.4 -98.79,-6.5 -93.38,-62.1 44.5,-457.9 -159.88,-900.7 -528.18,-1173.9 22.55,-3.8 45.1,-7.7 67.66,-11.6 -121.26,148 -242.51,295.9 -363.77,443.9 -30.2,36.8 -71.63,25.2 -86.84,-19.3 -122.06,-357.3 -535.15,-503.6 -884.15,-492.5 -351.98,11.3 -782.04,201.1 -860.56,578.8 -11.85,57 -80.41,87.4 -102.04,17.7 -79.86,-257.4 -230.93,-475.1 -441.89,-642.4 27.99,-31.2 55.98,-62.4 83.96,-93.6 85.27,461.5 -73.46,944.4 -421.99,1259.8 -39.42,35.7 -74.85,-18.3 -80.38,-52.5 -54.81,-339.4 -109.61,-678.9 -164.42,-1018.3 26.79,17.6 53.58,35.1 80.37,52.6 -151.5,168.2 -303,336.5 -454.51,504.7 -61.19,68 -89.26,-93.3 -64.06,-134.5 139.46,-228.5 -125.09,-461.4 -323.21,-523.2 -266.07,-83.1 -571.22,-38.7 -844.58,-27.9 -609.59,24.2 -1219.17,48.3 -1828.757,72.5 -73.942,2.9 -71.895,-166.3 4.152,-169.3 v 0"
         style="fill:#100f0d;fill-opacity:1;fill-rule:nonzero;stroke:none"
         id="path22" />
      <path
         d="m 1753.87,3151.5 c 846.12,134.7 1751.9,-328.3 2564.6,64.4 299.69,144.8 508.69,398.7 566.07,729.1 46.96,270.3 -11.42,637.7 -261.23,800 -126.46,82.1 -235.71,-18.5 -260.28,-146.3 -30.38,-158 32.33,-317.3 118.27,-447.4 109.89,-166.4 265.47,-285.4 427.5,-397.4 172.21,-119 352.89,-227.6 543.96,-313.7 355.75,-160.3 752.15,-236.4 1137.94,-153.6 351.8,75.4 667.94,275.9 845.02,595 189.45,341.4 246.98,772.6 233.09,1158.6 -5.41,150.1 -116.53,926.1 -413.4,724.4 -60.26,-41 -88.71,-125.3 -115.11,-190 -35.54,-87.1 -60.12,-179.4 -75.62,-272.1 -29.81,-178.4 -23.82,-363.7 11.75,-540.7 75.06,-373.5 286.06,-699.9 577.34,-942.3 562.94,-468.5 1468.21,-713.6 2171.71,-454.5 351.72,129.6 629.42,409.6 733.92,772.8 35.2,122.5 93.8,335.8 0.2,446.2 -67.1,79.1 -191.7,74.5 -250.6,-12.2 -86,-126.8 -30.4,-370.2 4.1,-506.1 46.9,-184.1 131.9,-357.9 256.6,-501.8 196.5,-226.6 471.7,-357.3 766.3,-398 654.2,-90.4 1303.4,246 1645.7,800.2 398.7,645.6 422.2,1467.3 271.5,2191.9 -26.2,126.1 -77.4,309.8 -238.9,308.3 -151.3,-1.5 -257.5,-176.7 -297.6,-302.7 -109.2,-342.5 -80.8,-730 23.9,-1069.2 235.6,-762.9 862.4,-1302 1592.1,-1580.8 379.1,-144.8 788.5,-233 1193.4,-260.6 399.5,-27.3 825.4,36.7 1122.9,327.2 244.9,239.2 343.3,602.5 194.5,920.3 -52.4,111.7 -176.9,313.2 -322.9,301.3 -164.6,-13.3 -156.5,-204.7 -133.5,-321.4 135.6,-688.3 766.3,-1228.8 1469.5,-1239.7 735.9,-11.4 1408.4,485.9 1657.1,1169.5 131.8,362.3 154.3,763.6 76.9,1140.5 -25.8,125.8 -54.7,384.6 -203.2,426.6 -149.7,42.3 -231.3,-154.7 -278.8,-261.4 -288.5,-647.9 2,-1430.6 539.5,-1849.2 647.4,-504.2 1507.1,-568.3 2296.3,-564 474.6,2.6 949.7,22.3 1422.9,-26 72.3,-7.4 72,161.4 -4.2,169.2 -754.7,77.1 -1515.9,-25.4 -2269.8,61.3 -608.4,70 -1277.1,279.1 -1671.7,778.1 -181.1,228.9 -292.8,515.8 -309,807.7 -8.1,144.8 6.5,291.7 51.7,430 26.4,80.9 163,424.5 252.3,227.8 131,-288.8 132,-673.3 75.3,-978.6 -58.8,-316.6 -204.9,-616.7 -429.5,-848.7 -412.3,-425.9 -1067.4,-638 -1639.3,-438.7 -278.1,97 -524,282.9 -696.9,521.1 -84,115.7 -151.2,243 -195.9,379 -15.5,47.3 -63.5,167.1 -45,216.9 35,94.4 162.3,-38.8 193.1,-76.5 216.2,-264.2 122.3,-606.5 -111.8,-821.8 -260.9,-240.1 -623.2,-299.4 -966.1,-285.6 -657.2,26.5 -1354.6,221.9 -1897,600.8 -515.3,359.8 -907.4,931 -940.8,1572.1 -8.2,158.1 3.1,323.3 47.7,476 35.2,120.2 225.9,363.3 313.3,139.8 53.3,-136.5 64.4,-307 80.5,-451.7 17.8,-159.3 25,-320 20.9,-480.2 -15.2,-599.9 -216.7,-1248.5 -710.8,-1625.7 -401.8,-306.9 -984.4,-427 -1462.7,-241 -261.4,101.6 -473.4,299.4 -582.8,559.1 -31.4,74.7 -54.3,152.3 -68.3,232.1 -8.8,50.3 -45.4,224.5 -1,260.7 46.5,38 88.6,2.2 93.4,-42.7 8.2,-76.2 -21.9,-171.9 -46.2,-243.3 -234.9,-692.9 -1044.81,-818.8 -1674.95,-693 -608.35,121.5 -1253.15,463.4 -1506.47,1060.5 -124.51,293.4 -149.77,634.9 -32.86,934.9 23.44,60.2 65.76,188.5 151.96,131.6 58,-38.3 93.21,-153.2 115.04,-217.1 53.42,-156.5 63.16,-326 58.7,-490 -9.02,-331.7 -63.99,-695.5 -250.06,-977.3 -173.1,-262.1 -464.49,-420.9 -768.83,-477.3 -324.91,-60.1 -654.36,-6.6 -959.05,114.7 -307.81,122.6 -627.88,306 -871.06,533.2 -108.29,101.1 -245.67,261.1 -242.34,419.6 2.12,100.7 76.53,110 143.91,51.8 47.9,-41.3 86.36,-94.3 114.52,-150.8 115.94,-232.7 67.58,-534.1 -76.82,-743.1 -174.82,-252.9 -495.86,-376.1 -788.85,-420.5 -329.52,-49.9 -660.57,-13.8 -988.6,29.1 -372.55,48.6 -746.74,100.1 -1121.23,40.5 -75.32,-12 -67.76,-180.7 4.16,-169.2 v 0"
         style="fill:#100f0d;fill-opacity:1;fill-rule:nonzero;stroke:none"
         id="path24" />
      <path
         d="m 2150.37,18609.9 c 1385.28,1.7 2770.58,1.6 4155.85,5.2 562.51,1.4 1165.87,17 1650.45,340.1 245.24,163.5 440.26,386.3 625.55,612.8 152.05,185.8 333.79,394.2 249.41,651.2 -74.33,226.4 -327.27,370.1 -559.68,353.7 -283.91,-20.1 -364.67,-278.1 -544.78,-451.5 22.55,-3.8 45.1,-7.7 67.65,-11.5 -185.5,318.9 -748.2,700.6 -1057.22,333.2 -134.7,-160.1 -179.91,-388.3 -120.18,-588 73.53,-245.8 268.53,-426.4 480.49,-558.1 498.91,-309.9 1093.57,-449.1 1670.72,-518.1 643.98,-77 1298.77,-75.1 1946.27,-66.2 349.2,4.7 698.3,16.3 1047.1,34.6 322.6,17 642.6,38.4 959.3,106 292,62.3 577.4,152.2 854,264.5 281.4,114.2 570.3,243.3 825.2,409.5 358.2,233.5 667,600.2 845.2,988.7 136,296.5 259.2,617.4 198.3,941.5 -47.6,252.9 -230.2,488.8 -449.8,615.6 -268.7,155.1 -572.3,164.9 -868.4,96.5 -554.1,-128.1 -1043.8,-502 -1295.2,-1014.3 31.3,-11.7 62.6,-23.4 93.8,-35 -107.6,508.1 -421.6,961.5 -865.6,1233.2 -416.8,254.9 -1071.5,376.1 -1353.3,-135.5 -233.9,-424.9 -118.3,-974 62.5,-1396.3 202.1,-472 541.2,-877.1 942.2,-1193.9 953.7,-753.7 2181.5,-946.8 3364.1,-989.9 657.7,-24 1324.7,-36.8 1981.8,5.8 605.9,39.2 1218.2,155.2 1751.5,458.2 255.5,145.2 490.7,329.4 679.3,555.8 170.1,204.3 329.8,452.3 336.5,727 6.2,256 -163.3,479.8 -433.6,466.9 -305.8,-14.6 -486,-287.2 -597,-540.8 34.9,-13.4 69.7,-26.8 104.6,-40.2 -11.6,183.2 -133.9,325.8 -313.3,368.3 -187.5,44.3 -360.6,-44.3 -457.3,-207.1 -255.5,-430.3 68.1,-887 428.9,-1120.5 447.3,-289.7 973.4,-410.4 1495.8,-476.7 609.7,-77.5 1227.2,-104 1841.2,-116.4 720.1,-14.5 1440.2,-1.3 2160.1,11.9 75,1.4 71.3,170.6 -4.1,169.2 -1072.1,-19.6 -2146,-39.2 -3216.7,32.5 -490,32.9 -988.1,71.5 -1463.6,201.2 -406.7,111 -902.6,304.5 -1133.8,681.5 -120,195.7 -122.8,499.9 99.1,628.6 144.3,83.7 440,24.7 452.6,-175.2 4.1,-65.6 69.1,-121.2 104.6,-40.2 97,221.9 262.3,461.7 533.2,455.1 122.7,-2.9 240.1,-66.7 276.4,-189.9 34.6,-117.7 -6.7,-250.6 -56,-357.9 -197.7,-430.8 -618.6,-754.3 -1034.4,-956.9 -498.6,-242.9 -1050.4,-335.1 -1599.9,-367.8 -576.7,-34.3 -1159.4,-23.7 -1736.6,-9.3 -1069.2,26.6 -2187.9,142.6 -3122.9,705.5 -394.6,237.6 -752,548.4 -1019.1,925.2 -255.3,360.1 -452.6,811.6 -442.4,1260.4 5.9,261.7 105.2,537.5 356.8,655.2 254.7,119.1 557.5,54.3 802.1,-58.3 491.2,-226.2 858.4,-688.2 970.3,-1216.4 8.6,-40.7 64.7,-94.1 93.7,-35 206.7,421.1 576.3,739.9 1015.6,900.9 471.5,172.9 1042.6,149.4 1324.3,-324.1 162.4,-273 87,-543.8 -22.7,-823.2 -143.5,-365.5 -359.4,-668.8 -651,-935 -199.9,-182.4 -442.3,-303.4 -684.5,-419.8 -242.3,-116.4 -491.8,-218.2 -748.1,-299.5 -553.3,-175.5 -1116.9,-210.9 -1693.1,-234.6 -601.5,-24.8 -1204.4,-31.1 -1806.14,-13.8 -542.74,15.6 -1090.18,56.3 -1616.56,197 -289.07,77.3 -574.98,183.5 -835.01,332.9 -216.35,124.2 -496.28,336.2 -492.88,614.3 2.82,230.6 200.14,447.1 439.35,386.7 223.54,-56.5 461.88,-231.8 577.83,-431.2 14.09,-24.2 47,-31.4 67.65,-11.5 142.75,137.4 226.06,377.2 437.3,419.5 187.2,37.5 488.22,-67.1 516.06,-285.4 17.63,-138.2 -113.91,-270.6 -193.85,-368.9 -87.23,-107.2 -175.58,-213.7 -270.43,-314.3 -184.64,-195.8 -393.29,-362.2 -644.01,-465 -497.47,-203.8 -1056.45,-178 -1583.53,-178.6 -607,-0.8 -1214,-1.5 -1821.01,-2.3 -693.72,-0.8 -1387.43,-1.7 -2081.15,-2.6 -74.71,-0.1 -71.52,-169.3 4.15,-169.2 v 0"
         style="fill:#100f0d;fill-opacity:1;fill-rule:nonzero;stroke:none"
         id="path26" />
    </g>
  </g>
</svg>
